Patient4_TMGait_0pt4_02_left_36_GRF.mot
version=1
nRows=39
nColumns=19
inDegrees=no
endheader
time	F1x	F1y	F1z	M1x	M1y	M1z	F2x	F2y	F2z	M2x	M2y	M2z	EC1x	EC1y	EC1z	EC2x	EC2y	EC2z
48.15	11.1296	-5.0693	-2.3798	1.2123	4.3567	-6.2267	-28.1227	722.1452	-53.5551	273.4599	74.34	795.2941	-0.0592	0.0182	-0.0073	-0.0462	0.0165	0.9585
48.163	7.5824	-2.8064	-1.5736	0.61321	2.8883	-3.5174	-27.7332	722.5713	-56.2144	273.8418	75.032	790.6912	-0.0592	0.0182	-0.0073	-0.0462	0.0165	0.9585
48.176	4.5763	-0.88972	-0.90024	0.10353	1.658	-1.2125	-26.7688	724.5279	-58.0687	274.8491	74.8692	787.5449	-0.0592	0.0182	-0.0073	-0.0462	0.0165	0.9585
48.189	2.2751	0.58658	-0.39153	-0.28988	0.72543	0.57681	-25.2746	728.7023	-59.0882	276.7241	73.9263	786.7833	-0.0592	0.0182	-0.0073	-0.0462	0.0165	0.9585
48.202	0.67548	1.6271	-0.042883	-0.56779	0.082486	1.8444	-23.3692	735.4178	-59.416	279.5676	72.4014	788.8317	-0.0592	0.0182	-0.0073	-0.0462	0.0165	0.9585
48.215	-0.33055	2.2784	0.17752	-0.74117	-0.32282	2.6469	-21.1984	744.4479	-59.2893	283.2702	70.55	793.4708	-0.0592	0.0182	-0.0073	-0.0462	0.0165	0.9585
48.228	-0.89103	2.5978	0.30354	-0.82175	-0.55363	3.0597	-18.895	755.0247	-58.9152	287.5149	68.578	799.8811	-0.0592	0.0182	-0.0073	-0.0462	0.0165	0.9585
48.241	-1.1523	2.6236	0.37524	-0.81512	-0.67842	3.1292	-16.5774	765.9524	-58.4708	291.8223	66.6543	806.7988	-0.0592	0.0182	-0.0073	-0.0462	0.0165	0.9585
48.254	-1.2473	2.3727	0.42077	-0.72178	-0.75154	2.8836	-14.3332	775.794	-58.0688	295.6291	64.8793	812.726	-0.0592	0.0182	-0.0073	-0.0462	0.0165	0.9585
48.267	-1.2616	1.8191	0.46384	-0.53177	-0.81355	2.2901	-12.2105	783.1276	-57.7744	298.3879	63.3065	816.207	-0.0592	0.0182	-0.0073	-0.0462	0.0165	0.9585
48.28	-1.2659	0.93639	0.5153	-0.23481	-0.89126	1.3128	-10.2158	786.8086	-57.5888	299.6697	61.9217	816.0881	-0.0592	0.0182	-0.0073	-0.0462	0.0165	0.9585
48.293	-1.2817	-0.31427	0.58421	0.17793	-0.99594	-0.11074	-8.3164	786.1948	-57.4769	299.2468	60.67	811.7336	-0.0592	0.0182	-0.0073	-0.0462	0.0165	0.9585
48.306	-1.3073	-1.9326	0.66452	0.70485	-1.115	-1.977	-6.4571	781.2484	-57.3855	297.1249	59.4796	803.1247	-0.0592	0.0182	-0.0073	-0.0462	0.0165	0.9585
48.319	-1.3	-3.8334	0.7384	1.3186	-1.2092	-4.1804	-4.5676	772.4902	-57.296	293.5213	58.3122	790.8011	-0.0592	0.0182	-0.0073	-0.0462	0.0165	0.9585
48.332	-1.1781	-5.7986	0.76164	1.9478	-1.199	-6.468	-2.5853	760.9396	-57.2304	288.8365	57.1665	775.7934	-0.0592	0.0182	-0.0073	-0.0462	0.0165	0.9585
48.345	-0.82799	-7.4024	0.67192	2.4519	-0.97426	-8.349	-0.44263	747.9675	-57.2446	283.601	56.066	759.4589	-0.0592	0.0182	-0.0073	-0.0462	0.0165	0.9585
48.358	-0.093018	-7.9478	0.38827	2.6006	-0.39199	-9.0289	1.9004	735.0902	-57.3974	278.4012	55.0442	743.2935	-0.0592	0.0182	-0.0073	-0.0462	0.0165	0.9585
48.371	1.1882	-6.409	-0.18604	2.0546	0.7104	-7.3245	4.4673	723.732	-57.7244	273.7904	54.1216	728.6941	-0.0592	0.0182	-0.0073	-0.0462	0.0165	0.9585
48.384	3.1778	-1.4229	-1.1481	0.36199	2.4946	-1.6803	7.2481	714.9994	-58.2202	270.1978	53.2908	716.755	-0.0592	0.0182	-0.0073	-0.0462	0.0165	0.9585
48.397	5.9621	8.6605	-2.5779	-3.0211	5.0755	9.8035	10.1566	709.4258	-58.8368	267.8339	52.5302	708.0302	-0.0592	0.0182	-0.0073	-0.0462	0.0165	0.9585
48.41	9.5074	25.5711	-4.4922	-8.665	8.4558	29.1235	13.049	706.8085	-59.4816	266.6263	51.8038	702.3652	-0.0592	0.0182	-0.0073	-0.0462	0.0165	0.9585
48.423	13.5396	50.7356	-6.8015	-17.034	12.432	57.9359	15.7364	706.1894	-60.016	266.2091	51.0535	698.8887	-0.0592	0.0182	-0.0073	-0.0462	0.0165	0.9585
48.436	17.4129	84.6491	-9.2365	-28.2765	16.4644	96.8349	18.0171	705.8745	-60.2683	265.9362	50.1978	696.0134	-0.0592	0.0182	-0.0073	-0.0462	0.0165	0.9585
48.449	19.9818	125.9494	-11.2585	-41.916	19.5386	144.283	19.6946	703.6438	-60.0443	264.964	49.1355	691.6438	-0.0592	0.0182	-0.0073	-0.0462	0.0165	0.9585
48.462	19.6715	170.3947	-12.0092	-56.5041	20.142	195.4633	20.6446	697.1639	-59.1748	262.4092	47.7637	683.5505	-0.0592	0.0182	-0.0073	-0.0462	0.0165	0.9585
48.475	15.8531	211.1891	-10.5385	-69.728	17.0275	242.7186	20.8231	684.5889	-57.5666	257.5752	46.019	669.9385	-0.0592	0.0182	-0.0073	-0.0462	0.0165	0.9585
48.488	9.9157	242.6922	-6.8904	-79.7206	10.7609	279.5386	20.3055	665.1368	-55.2848	250.1647	43.9468	649.9894	-0.0592	0.0182	-0.0073	-0.0462	0.0165	0.9585
48.501	3.5707	264.755	-1.9558	-86.4497	2.8955	305.5807	19.3029	639.2392	-52.567	240.328	41.6993	624.0224	-0.0592	0.0182	-0.0073	-0.0462	0.0165	0.9585
48.514	-2.0629	280.3151	3.6633	-90.9258	-5.4862	324.0696	18.115	608.0468	-49.722	228.491	39.4474	593.0541	-0.0592	0.0182	-0.0073	-0.0462	0.0165	0.9585
48.527	-6.5632	292.8713	9.2663	-94.3654	-13.4496	338.9571	17.0452	573.0041	-46.8555	215.2045	37.173	558.4042	-0.0592	0.0182	-0.0073	-0.0462	0.0165	0.9585
48.54	-10.0988	305.2272	14.5244	-97.7467	-20.6481	353.4546	16.3177	535.534	-43.8749	201.0262	34.7094	521.4025	-0.0592	0.0182	-0.0073	-0.0462	0.0165	0.9585
48.553	-12.997	319.1664	19.0028	-101.7131	-26.7141	369.5764	16.023	496.8924	-40.5738	186.4518	31.8307	483.2602	-0.0592	0.0182	-0.0073	-0.0462	0.0165	0.9585
48.566	-15.3683	336.0518	22.6942	-106.7275	-31.6558	388.7761	16.1384	458.052	-36.8377	171.8587	28.4362	444.9317	-0.0592	0.0182	-0.0073	-0.0462	0.0165	0.9585
48.579	-17.1048	356.8989	25.6899	-113.1097	-35.5513	412.0795	16.5287	419.6561	-32.6754	157.4837	24.5703	407.0774	-0.0592	0.0182	-0.0073	-0.0462	0.0165	0.9585
48.592	-18.165	381.7654	28.4275	-120.8452	-38.857	439.4906	17.0299	381.9583	-28.2535	143.4073	20.4336	369.9767	-0.0592	0.0182	-0.0073	-0.0462	0.0165	0.9585
48.605	-18.6459	409.9069	31.2783	-129.6544	-42.0133	470.0733	17.4135	344.9521	-23.7758	129.6048	16.2764	333.6595	-0.0592	0.0182	-0.0073	-0.0462	0.0165	0.9585
48.618	-18.7031	440.4856	34.6075	-139.2295	-45.4512	502.8279	17.455	308.474	-19.4705	115.9934	12.3767	297.9917	-0.0592	0.0182	-0.0073	-0.0462	0.0165	0.9585
48.631	-18.4176	473.0966	38.4674	-149.4275	-49.2505	537.209	16.9524	272.3967	-15.5094	102.5086	8.9561	262.8633	-0.0592	0.0182	-0.0073	-0.0462	0.0165	0.9585
48.644	-17.8146	507.8928	42.8609	-160.2849	-53.4069	573.3083	15.7681	236.7552	-12.0474	89.1528	6.2044	228.3064	-0.0592	0.0182	-0.0073	-0.0462	0.0165	0.9585
